<?xml version="1.0" encoding="utf-8"?>
<!-- Generator: Adobe Illustrator 25.2.3, SVG Export Plug-In . SVG Version: 6.00 Build 0)  -->
<svg version="1.1" id="Слой_1" xmlns="http://www.w3.org/2000/svg" xmlns:xlink="http://www.w3.org/1999/xlink" x="0px" y="0px"
	 viewBox="0 0 32 32" style="enable-background:new 0 0 32 32;" xml:space="preserve">
<style type="text/css">
	.st0{fill:#FF008F;}
</style>
<path class="st0" d="M22.2,1C22.1,1,22.1,1,22.2,1l-3.8,4.4l-0.8,2.6c-0.5,0-1,0-1.6,0c-3.9,0-7,0.4-7,0.9c0,1.2,14,1.2,14,0
	c0-0.4-1.7-0.7-4.1-0.8L19.5,6L23,1.8l0,0c0.1-0.1-0.1-0.3-0.3-0.5C22.5,1.1,22.3,1,22.2,1z M17.3,9.1L17.3,9.1
	C17.3,9.1,17.3,9.1,17.3,9.1c0,0.1,0.3,0.2,0.7,0.2s0.7-0.1,0.7-0.1l0,0c0.1,0,0.2,0.1,0.2,0.1c0,0.1-0.4,0.2-0.8,0.2
	c-0.5,0-0.8-0.1-0.8-0.2C17.1,9.2,17.2,9.1,17.3,9.1z M22.9,9.4c-1.9,1-12,1-13.8,0l0.8,7.2c0.4-1.2,1.3-2.7,2.4-3.2
	c0.4-0.2,0.8-0.2,1.1,0.1c0.3,0.2,0.6,0.5,0.6,0.7c0.1,0.4-0.1,0.5-0.3,0.5c-0.2,0-0.3-0.3-0.4-0.4c-0.2-0.4-0.6-0.4-1-0.2
	c-0.4,0.3-0.8,0.8-1,1.2c-0.3,0.5-0.6,1.1-0.7,1.6c-0.1,0.3-0.2,0.8,0,1.1c0.1,0.1,0.2,0.2,0.3,0.2c0.3,0,0.7-0.4,1-0.6
	c0.3-0.3,0.6-0.7,0.8-0.9l0.3-0.9c0.2-0.4,0.6-0.3,0.6,0c0,0.6-0.2,0.8-0.6,2c-0.4,1.1-0.5,1.5-0.5,1.5c0,0.2-0.2,0.4-0.4,0.4
	c-0.1,0-0.1,0-0.2-0.1c-0.1-0.1-0.1-0.3,0-0.4c0-0.2,0.4-1.3,0.4-1.5c-0.1,0.1-0.2,0.3-0.4,0.4C11.6,18.6,11,19,10.6,19
	c-0.2,0-0.3-0.1-0.5-0.1l0.5,4.6c0.1,0.3,2.4,1,5.3,1c3,0,5.2-0.7,5.3-1l0.7-5.5c-0.3,0.3-0.7,0.7-1.2,0.9c-0.3,0.1-1.1,0.2-1.1-0.3
	c0-0.3,0.6-0.9,0.9-1.2c0.1-0.1,0.3-0.3,0.3-0.5c0-0.2-0.4-0.1-0.7,0.1c-0.2,0.2-0.4,0.4-0.5,0.6c-0.3,0.3-0.4,0.6-0.5,0.9
	c-0.4,0.8-0.2,0.5-0.6,1.3c-0.3,0.8-0.3,0.7-0.3,0.8c-0.1,0.1-0.1,0.2-0.2,0.3c-0.1,0.1-0.3,0.1-0.4,0c-0.1,0-0.1-0.1-0.1-0.2
	c0-0.1,0-0.1,0-0.2c0.1-0.4,0.5-1,0.9-2c0.1-0.2,0.1-0.1,0-0.1c-0.4,0.3-0.7,0.5-0.9,0.6c-0.4,0.1-0.8,0.1-0.9-0.2c0,0,0,0,0-0.1
	c-0.7,0.5-1.5,0.7-1.2-0.5c-0.3,0.5-0.8,0.9-1.4,0.9c-0.2,0-0.4-0.1-0.5-0.3c-0.1-0.3,0.1-0.9,0.3-1.4c0.1-0.3,0.2-0.6,0.4-0.9
	c0.1-0.2,0.3-0.3,0.5-0.3c0,0,0.1,0,0.1,0c0.2,0.1,0.1,0.3,0,0.4c-0.2,0.4-0.4,0.7-0.6,1.2c-0.1,0.2-0.1,0.5,0.1,0.5
	c0.1,0,0.3,0,0.4-0.1c0.3-0.2,0.5-0.5,0.7-0.8c0.1-0.2,0.3-0.5,0.3-0.7c0-0.1,0.1-0.2,0.1-0.3c0.1-0.1,0.2-0.3,0.3-0.3
	c0.1,0,0.1,0,0.2,0.1c0.1,0.1,0.1,0.3,0,0.4c-0.1,0.3-0.3,0.6-0.4,1C16.1,17.7,16,18,16,18.2c0,0.2,0.2,0.1,0.4,0.1
	c0.1-0.1,0.3-0.2,0.4-0.3c0.1-0.3,0.1-0.2,1.6-3.9c0.1-0.2,0.2-0.3,0.4-0.3c0.1,0,0.1,0,0.2,0.1c0.1,0.1,0.1,0.2,0.1,0.4
	c0,0.1,0,0.1-0.3,0.6c-0.3,0.7-0.5,1.2-0.8,1.8c-0.1,0.3-0.5,1.1-0.5,1.3c0,0.1-0.1,0.3,0.1,0.3c0.3,0,1.2-0.8,1.4-1c0,0,0,0,0.1,0
	c0-0.1,0.1-0.2,0.1-0.3c0.1-0.2,0.2-0.5,0.3-0.7c0-0.1,0.1-0.1,0.2-0.1c0.2,0,0.3,0.1,0.3,0.2c0,0.1,0,0.3-0.1,0.4
	c0.1-0.1,0.2-0.2,0.3-0.3c0.9-0.8,1.6-0.4,1.6,0c0,0.4-0.5,1-0.8,1.3c-0.1,0.1-0.3,0.3-0.3,0.4c0,0.1,0.1,0.1,0.1,0.1
	c0.1,0,0.4-0.2,0.5-0.3c0.3-0.2,0.7-0.6,1-0.8L22.9,9.4z M10.9,24l0.9,1.5l0.4,4.6c0,0.5,1.7,0.9,3.8,0.9s3.8-0.4,3.8-0.9l0.3-4.6
	L21,24C18.6,25,13.4,25,10.9,24z"/>
</svg>
